<svg xmlns="http://www.w3.org/2000/svg" width="24.909" height="29.284" viewBox="0 0 24.909 29.284"><defs><style>.a{fill:#160f38;}</style></defs><g transform="translate(-42.522 0.419)"><g transform="translate(42.522 -0.419)"><path class="a" d="M143.3,15.779h.194a5.6,5.6,0,0,0,4.275-1.85c2.335-2.632,1.947-7.144,1.9-7.574-.152-3.232-1.68-4.779-2.941-5.5A6.742,6.742,0,0,0,143.474,0h-.1a6.753,6.753,0,0,0-3.263.831c-1.273.722-2.826,2.268-2.977,5.524-.042.431-.431,4.942,1.9,7.574A5.573,5.573,0,0,0,143.3,15.779ZM138.75,6.507c0-.018.006-.036.006-.049.2-4.348,3.287-4.815,4.609-4.815h.073c1.637.036,4.421.7,4.609,4.815a.118.118,0,0,0,.006.049c.006.042.431,4.166-1.5,6.337a3.975,3.975,0,0,1-3.123,1.3h-.061a3.962,3.962,0,0,1-3.117-1.3C138.332,10.685,138.744,6.543,138.75,6.507Z" transform="translate(-130.956)"/><path class="a" d="M60.98,266.785v-.018c0-.049-.006-.1-.006-.152-.036-1.2-.115-4.008-2.747-4.906l-.061-.018a17.5,17.5,0,0,1-5.033-2.292.818.818,0,1,0-.94,1.34,18.888,18.888,0,0,0,5.537,2.529c1.413.5,1.571,2.013,1.613,3.4a1.219,1.219,0,0,0,.006.152,11.007,11.007,0,0,1-.127,1.874,22.317,22.317,0,0,1-10.691,2.486,22.446,22.446,0,0,1-10.7-2.492,10.42,10.42,0,0,1-.127-1.874c0-.049.006-.1.006-.152.042-1.383.2-2.893,1.613-3.4a19.064,19.064,0,0,0,5.537-2.529.818.818,0,1,0-.94-1.34,17.305,17.305,0,0,1-5.033,2.292c-.024.006-.042.012-.061.018-2.632.9-2.711,3.711-2.747,4.906a1.218,1.218,0,0,1-.006.152v.018a9.3,9.3,0,0,0,.309,2.747.778.778,0,0,0,.315.382c.182.121,4.542,2.9,11.837,2.9s11.655-2.783,11.837-2.9a.811.811,0,0,0,.315-.382A9.756,9.756,0,0,0,60.98,266.785Z" transform="translate(-36.073 -243.523)"/></g></g></svg>