<svg xmlns="http://www.w3.org/2000/svg" width="55.944" height="69.93" viewBox="0 0 55.944 69.93"><defs><style>.a{fill:#160f38;}</style></defs><g transform="translate(-48)"><g transform="translate(48)"><path class="a" d="M102.778,17.482A16.336,16.336,0,0,1,86.461,1.165,1.166,1.166,0,0,0,85.3,0H66.648a1.166,1.166,0,0,0-1.165,1.165A16.336,16.336,0,0,1,49.165,17.482,1.166,1.166,0,0,0,48,18.648V34.965A28.022,28.022,0,0,0,68.979,62.051v6.713a1.166,1.166,0,0,0,1.165,1.165H81.8a1.166,1.166,0,0,0,1.165-1.165V62.051a28.022,28.022,0,0,0,20.979-27.086V18.648A1.166,1.166,0,0,0,102.778,17.482ZM89.958,23.31h.4a3.522,3.522,0,0,1,2.473,1.024l.483.483a1.166,1.166,0,0,1,0,1.648l-.2.2a1.189,1.189,0,0,1-1.648,0l-.483-.481a3.475,3.475,0,0,1-1.024-2.474v-.4ZM63.151,13.465A18.555,18.555,0,0,0,67.777,2.331H84.166a18.555,18.555,0,0,0,4.626,11.134v2.852a12.82,12.82,0,1,1-25.641,0ZM78.445,34.423A3.475,3.475,0,0,1,79.468,36.9v.4a3.5,3.5,0,1,1-6.993,0v-.4A3.475,3.475,0,0,1,73.5,34.423l2.473-2.472ZM61.986,23.31v.4a3.472,3.472,0,0,1-1.023,2.472l-.485.484a1.19,1.19,0,0,1-1.648,0l-.2-.2a1.165,1.165,0,0,1,0-1.647l.484-.484a3.52,3.52,0,0,1,2.472-1.024ZM80.634,67.6H71.31V62.937h9.324Zm20.979-32.634a25.641,25.641,0,0,1-51.282,0V19.777A18.541,18.541,0,0,0,60.82,15.7v.619a15.079,15.079,0,0,0,.742,4.662,5.79,5.79,0,0,0-4.1,1.7l-.485.484a3.5,3.5,0,0,0,0,4.944l.2.2a3.5,3.5,0,0,0,4.944,0l.484-.484a5.777,5.777,0,0,0,1.382-2.273,15.142,15.142,0,0,0,9.4,5.681l-1.543,1.543A5.79,5.79,0,0,0,70.144,36.9v.4a5.827,5.827,0,0,0,11.655,0v-.4a5.79,5.79,0,0,0-1.706-4.121l-1.543-1.54a15.142,15.142,0,0,0,9.4-5.674,5.773,5.773,0,0,0,1.382,2.273l.483.483a3.5,3.5,0,0,0,4.945,0h0l.2-.2a3.5,3.5,0,0,0,0-4.945l-.483-.481a5.788,5.788,0,0,0-4.1-1.711,15.079,15.079,0,0,0,.742-4.662V15.7a18.541,18.541,0,0,0,10.489,4.079Z" transform="translate(-48)"/></g><g transform="translate(75.972 48.951)"><path class="a" d="M245.827,336H243.5a3.5,3.5,0,0,1-3.5,3.5v2.331a3.5,3.5,0,0,1,3.5,3.5h2.331a3.5,3.5,0,0,1,3.5-3.5V339.5A3.5,3.5,0,0,1,245.827,336Zm-1.165,5.864a5.854,5.854,0,0,0-1.2-1.2,5.857,5.857,0,0,0,1.2-1.2,5.856,5.856,0,0,0,1.2,1.2A5.854,5.854,0,0,0,244.662,341.864Z" transform="translate(-240 -336)"/></g><g transform="translate(58.489 40.792)"><path class="a" d="M128.158,280h-2.331A5.834,5.834,0,0,1,120,285.827v2.331a5.834,5.834,0,0,1,5.827,5.827h2.331a5.834,5.834,0,0,1,5.827-5.827v-2.331A5.834,5.834,0,0,1,128.158,280Zm-1.165,9.805h0a8.209,8.209,0,0,0-2.812-2.812,8.209,8.209,0,0,0,2.812-2.812,8.208,8.208,0,0,0,2.812,2.812A8.208,8.208,0,0,0,126.993,289.805Z" transform="translate(-120 -280)"/></g></g></svg>