<svg xmlns="http://www.w3.org/2000/svg" width="48.427" height="61.047" viewBox="0 0 48.427 61.047"><defs><style>.a{fill:#160f38;}</style></defs><g transform="translate(-52.924)"><g transform="translate(56.995 16.73)"><g transform="translate(0)"><path class="a" d="M116.41,142.532a.894.894,0,1,0-.818,1.591,18.278,18.278,0,1,1-3.443-1.348.894.894,0,0,0,.48-1.723,20.137,20.137,0,1,0,3.781,1.481Z" transform="translate(-87.067 -140.314)"/></g></g><g transform="translate(52.924)"><path class="a" d="M94.962,20.5a2.971,2.971,0,0,0,1.277-.655,3.177,3.177,0,0,0,.927-2.883,3.859,3.859,0,0,0-1.539-2.377c-1.416-1.106-3.205-1.023-4.913-.755l-.012,0a2.647,2.647,0,0,1-3.059-1.289,2.066,2.066,0,0,1,.218-1.523.894.894,0,0,0-1.581-.835,3.78,3.78,0,0,0-.331,2.931,3.33,3.33,0,0,0,.752,1.228,2.555,2.555,0,0,1-1.486-.5,3.672,3.672,0,0,1-.7-4.284,3.312,3.312,0,0,1,3.16-1.58,2.256,2.256,0,0,1,1.481.729,2.466,2.466,0,0,1,.4,2.07.894.894,0,1,0,1.733.443,4.248,4.248,0,0,0-.763-3.666A3.979,3.979,0,0,0,87.919,6.2a4.4,4.4,0,0,0-.517-.038.893.893,0,0,0-.153-1.1L82.18.246a.893.893,0,0,0-.6-.245H72.7a.893.893,0,0,0-.6.245L67.026,5.063a.894.894,0,0,0-.214.98.884.884,0,0,0,.062.125A4.378,4.378,0,0,0,66.4,6.2a3.979,3.979,0,0,0-2.61,1.349,4.248,4.248,0,0,0-.763,3.666.894.894,0,1,0,1.733-.443,2.466,2.466,0,0,1,.4-2.07,2.256,2.256,0,0,1,1.481-.729,3.314,3.314,0,0,1,3.16,1.58,3.673,3.673,0,0,1-.695,4.284,2.555,2.555,0,0,1-1.486.5,3.33,3.33,0,0,0,.752-1.229,3.78,3.78,0,0,0-.331-2.931.894.894,0,0,0-1.582.835,2.065,2.065,0,0,1,.218,1.523,2.646,2.646,0,0,1-3.058,1.289h-.012c-1.708-.269-3.5-.351-4.913.754a3.86,3.86,0,0,0-1.539,2.378,3.178,3.178,0,0,0,.928,2.883,2.969,2.969,0,0,0,1.237.647,24.154,24.154,0,0,0,.624,33.4.894.894,0,0,0,1.269-1.26,22.4,22.4,0,1,1,2.892,2.46.894.894,0,1,0-1.04,1.455A24.193,24.193,0,0,0,94.962,20.5ZM62.977,17.244a.894.894,0,0,0-1.771.237,1.354,1.354,0,0,1-.332,1.04,1.274,1.274,0,0,1-1.607-.017,1.465,1.465,0,0,1-.347-1.249,2.15,2.15,0,0,1,.875-1.26c.872-.68,2.129-.62,3.516-.4h0c.352.056.713.122,1.077.188.218.04.437.08.655.118A24.286,24.286,0,0,0,62.977,17.244ZM82.458,2.978l1.936,1.84H82.458ZM80.67,1.788V3.417l-1.5-1.628ZM79.528,4.817h-4.78l2.39-2.6ZM73.605,1.788h1.5l-1.5,1.628ZM71.817,2.978v1.84H69.881ZM71.59,13.3a5.843,5.843,0,0,0,.366-1.554L73.1,13Q72.337,13.13,71.59,13.3Zm5.548-.642c-.163,0-.324,0-.486.006l-.979-2.294a.894.894,0,1,0-1.645.7l.23.539-4.585-5.01H72.12l.489,1.145a.894.894,0,1,0,1.645-.7l-.189-.443H80.21l-2.587,6.063C77.461,12.666,77.3,12.663,77.137,12.663Zm5.017-6.057H84.6l-4.585,5.01ZM81.174,13l1.188-1.3a5.84,5.84,0,0,0,.375,1.615Q81.965,13.134,81.174,13Zm12.274,5.52a1.353,1.353,0,0,1-.332-1.04.894.894,0,0,0-1.776-.207,24.315,24.315,0,0,0-2.1-1.368c.231-.04.462-.082.692-.124.365-.067.726-.133,1.079-.189h0c1.386-.219,2.644-.279,3.516.4a2.15,2.15,0,0,1,.875,1.26,1.466,1.466,0,0,1-.347,1.249A1.274,1.274,0,0,1,93.448,18.521Z" transform="translate(-52.924)"/></g></g></svg>