<svg xmlns="http://www.w3.org/2000/svg" width="47.25" height="52.5" viewBox="0 0 47.25 52.5"><defs><style>.a{fill:#160f38;}</style></defs><g transform="translate(-40 -16)"><path class="a" d="M48.75,37a.875.875,0,0,0-.875.875V40.5h-1.75a.875.875,0,0,0-.619.256l-5.25,5.25a.875.875,0,0,0-.256.619v15.75a.875.875,0,0,0,.256.619l5.25,5.25a.875.875,0,0,0,.619.256h10.5a.875.875,0,0,0,.619-.256l5.25-5.25a.875.875,0,0,0,.256-.619V46.625a.875.875,0,0,0-.256-.619l-5.25-5.25a.875.875,0,0,0-.619-.256h-1.75V37.875A.875.875,0,0,0,54,37H52.25V35.1a2.622,2.622,0,0,0,1.4-3.779,7.873,7.873,0,0,0,4.724-7.445c0-4.342-3.14-7.875-7-7.875s-7,3.533-7,7.875A7.874,7.874,0,0,0,49.1,31.32,2.622,2.622,0,0,0,50.5,35.1V37ZM46.125,23.875c0-3.377,2.355-6.125,5.25-6.125s5.25,2.748,5.25,6.125S54.27,30,51.375,30,46.125,27.252,46.125,23.875Zm6.125,8.75a.875.875,0,1,1-.875-.875A.875.875,0,0,1,52.25,32.625ZM61,46.987V62.013L56.263,66.75H46.487L41.75,62.013V46.987l4.737-4.737h9.775ZM53.125,40.5h-3.5V38.75h3.5Z"/><path class="a" d="M75.756,272.256l-3.5,3.5a.875.875,0,0,0-.256.619v12.25a.875.875,0,0,0,.256.619l3.5,3.5a.875.875,0,0,0,.619.256h7a.875.875,0,0,0,.619-.256l3.5-3.5a.875.875,0,0,0,.256-.619v-12.25a.875.875,0,0,0-.256-.619l-3.5-3.5a.875.875,0,0,0-.619-.256h-7a.875.875,0,0,0-.619.256Zm5.4,4.994,1.343,2.015v6.47l-1.343,2.015H78.593l-1.343-2.015v-6.47l1.343-2.015Zm-5,.5-1.953-1.465,1.928-1.928.98,1.96Zm-.66,1.692v6.125l-1.75,1.313v-8.75Zm.66,7.818.955,1.433-.98,1.96-1.928-1.928Zm2.506,2.245h2.418l.875,1.75H77.791Zm3.969-.812.955-1.433,1.953,1.465-1.928,1.928Zm1.615-3.125v-6.125L86,278.125v8.75Zm-.66-7.817-.955-1.433.98-1.96,1.928,1.928ZM81.084,275.5H78.666l-.875-1.75h4.169Z" transform="translate(-28.5 -228)"/><path class="a" d="M272.75,37a.875.875,0,0,0-.875.875V40.5h-1.75a.875.875,0,0,0-.619.256l-5.25,5.25a.875.875,0,0,0-.256.619v15.75a.875.875,0,0,0,.256.619l5.25,5.25a.875.875,0,0,0,.619.256h10.5a.875.875,0,0,0,.619-.256l5.25-5.25a.875.875,0,0,0,.256-.619V46.625a.875.875,0,0,0-.256-.619l-5.25-5.25a.875.875,0,0,0-.619-.256h-1.75V37.875A.875.875,0,0,0,278,37h-1.75V35.1a2.622,2.622,0,0,0,1.4-3.779,7.873,7.873,0,0,0,4.724-7.445c0-4.342-3.14-7.875-7-7.875s-7,3.533-7,7.875A7.874,7.874,0,0,0,273.1,31.32a2.622,2.622,0,0,0,1.4,3.779V37Zm-2.625-13.125c0-3.377,2.355-6.125,5.25-6.125s5.25,2.748,5.25,6.125S278.27,30,275.375,30,270.125,27.252,270.125,23.875Zm6.125,8.75a.875.875,0,1,1-.875-.875A.875.875,0,0,1,276.25,32.625ZM285,46.987V62.013l-4.737,4.737h-9.775l-4.737-4.737V46.987l4.737-4.737h9.775ZM277.125,40.5h-3.5V38.75h3.5Z" transform="translate(-199.5)"/><path class="a" d="M299.756,272.256l-3.5,3.5a.875.875,0,0,0-.256.619v12.25a.875.875,0,0,0,.256.619l3.5,3.5a.875.875,0,0,0,.619.256h7a.875.875,0,0,0,.619-.256l3.5-3.5a.875.875,0,0,0,.256-.619v-12.25a.875.875,0,0,0-.256-.619l-3.5-3.5a.875.875,0,0,0-.619-.256h-7a.875.875,0,0,0-.619.256Zm5.4,4.994,1.343,2.015v6.47l-1.343,2.015h-2.564l-1.343-2.015v-6.47l1.343-2.015Zm-5,.5-1.953-1.465,1.928-1.928.98,1.96Zm-.66,1.692v6.125l-1.75,1.313v-8.75Zm.66,7.818.955,1.433-.98,1.96-1.928-1.928Zm2.506,2.245h2.418l.875,1.75h-4.169Zm3.969-.812.955-1.433,1.953,1.465-1.928,1.928Zm1.615-3.125v-6.125l1.75-1.312v8.75Zm-.66-7.817-.955-1.433.98-1.96,1.928,1.928Zm-2.506-2.245h-2.418l-.875-1.75h4.169Z" transform="translate(-228 -228)"/><path class="a" d="M119,52.375c0-2.412-1.57-4.375-3.5-4.375s-3.5,1.963-3.5,4.375,1.57,4.375,3.5,4.375S119,54.787,119,52.375Zm-5.25,0c0-1.423.8-2.625,1.75-2.625s1.75,1.2,1.75,2.625S116.449,55,115.5,55,113.75,53.8,113.75,52.375Z" transform="translate(-64.125 -28.5)"/><path class="a" d="M343,52.375c0-2.412-1.57-4.375-3.5-4.375s-3.5,1.963-3.5,4.375,1.57,4.375,3.5,4.375S343,54.787,343,52.375Zm-5.25,0c0-1.423.8-2.625,1.75-2.625s1.75,1.2,1.75,2.625S340.449,55,339.5,55,337.75,53.8,337.75,52.375Z" transform="translate(-263.625 -28.5)"/></g></svg>