<svg xmlns="http://www.w3.org/2000/svg" width="68.587" height="32.013" viewBox="0 0 68.587 32.013"><defs><style>.a{fill:#160f38;}</style></defs><g transform="translate(-325.5 -143.981)"><path class="a" d="M19.429,163.417h2.109a14.381,14.381,0,0,0,5.447,5.1c5.424,3.221,13.989,5.554,25.458,6.933a70.94,70.94,0,0,0,8.434.543c8.342,0,14.636-1.843,18.768-5.507a13.624,13.624,0,0,0,0-21c-5.425-4.812-14.577-6.482-27.2-4.965-11.469,1.379-20.034,3.711-25.458,6.934a14.383,14.383,0,0,0-5.447,5.1H19.429a3.429,3.429,0,1,0,0,6.859Zm8.724-9.995c5.148-3.058,13.412-5.288,24.563-6.629a68.335,68.335,0,0,1,8.12-.522,40.015,40.015,0,0,1,8.578.836,19.158,19.158,0,0,1,8.715,4.091,11.342,11.342,0,0,1,0,17.577,19.161,19.161,0,0,1-8.715,4.091,50.89,50.89,0,0,1-16.7.314c-11.151-1.34-19.415-3.571-24.563-6.628-4.607-2.736-5.295-5.288-5.295-6.565s.688-3.829,5.294-6.565Zm-8.724,5.422h1.254a5.94,5.94,0,0,0,0,2.286H19.429a1.143,1.143,0,0,1,0-2.286Z" transform="translate(309.5)"/><path class="a" d="M107.279,198.238a62.807,62.807,0,0,0,8.525.634,36.415,36.415,0,0,0,7.041-.624,17.823,17.823,0,0,0,8.377-3.76,8.628,8.628,0,0,0,0-14.09,17.824,17.824,0,0,0-8.377-3.76,48.1,48.1,0,0,0-15.566.01C88.923,179.177,80,182.708,80,187.443S88.923,195.708,107.279,198.238Zm-.987-11.938a1.143,1.143,0,0,1,0,2.286H82.764a1.607,1.607,0,0,1,0-2.286Zm23.428,6.465c-5.124,4.466-14.862,4.21-22.129,3.209h0c-9.448-1.3-16.426-2.9-20.739-4.75q-.406-.174-.779-.352h20.219a3.415,3.415,0,0,0,2.286-.876,3.415,3.415,0,0,0,2.286.876h18.1l1.946.649A9.517,9.517,0,0,1,129.72,192.764Zm-1.709-4.179H110.864a1.143,1.143,0,0,1,0-2.286h17.147Zm4.572-1.143a5.974,5.974,0,0,1-.48,2.064l-1.806-.6V185.98l1.806-.6A5.974,5.974,0,0,1,132.583,187.443Zm-24.992-8.53c7.267-1,17.005-1.257,22.129,3.209a9.519,9.519,0,0,1,1.194,1.243l-1.946.649h-18.1a3.415,3.415,0,0,0-2.286.876,3.415,3.415,0,0,0-2.286-.876H86.073q.373-.177.779-.351C91.165,181.813,98.143,180.215,107.591,178.912Z" transform="translate(254.645 -27.455)"/></g></svg>