<svg xmlns="http://www.w3.org/2000/svg" width="65.5" height="65.5" viewBox="0 0 65.5 65.5"><defs><style>.a{fill:#160f38;}</style></defs><path class="a" d="M24.642,148.924l4.119-5.493L23.807,136H12.112l-4.954,7.431,4.119,5.493a17.96,17.96,0,1,0,13.364,0Zm-2.12-.693c-.342-.09-.68-.187-1.029-.257l1.408-3.522h2.454Zm.155-10.118,2.818,4.226H22.838l-2.113-4.226Zm-5.121,0h.807l2.113,4.226H15.443Zm3.069,6.339-1.3,3.239c-.453-.035-.906-.07-1.369-.07s-.916.035-1.369.07l-1.3-3.239Zm-7.382-6.339h1.951l-2.113,4.226H10.425Zm-2.678,6.339h2.454l1.408,3.522c-.349.07-.688.167-1.029.257Zm7.4,36.976a15.847,15.847,0,1,1,15.847-15.847A15.865,15.865,0,0,1,17.96,181.427Z" transform="translate(0 -118.04)"/><path class="a" d="M45.734,256a13.734,13.734,0,1,0,13.734,13.734A13.75,13.75,0,0,0,45.734,256Zm0,25.355a11.621,11.621,0,1,1,11.621-11.621A11.635,11.635,0,0,1,45.734,281.355Z" transform="translate(-27.774 -222.194)"/><path class="a" d="M301.581,30.637a4.213,4.213,0,0,0-2.223-3.7,4.2,4.2,0,0,0-1.422-7.864,4.191,4.191,0,0,0-2.113-7.4,4.2,4.2,0,0,0-4.87-6.832,4.167,4.167,0,0,0,.063-.622,4.226,4.226,0,0,0-8.452,0,4.167,4.167,0,0,0,.063.622,4.183,4.183,0,0,0-2.176-.622,4.207,4.207,0,0,0-2.694,7.454,4.191,4.191,0,0,0-2.113,7.4,4.2,4.2,0,0,0-1.422,7.864,4.187,4.187,0,0,0,0,7.4,4.2,4.2,0,0,0,1.422,7.864,4.191,4.191,0,0,0,2.113,7.4,4.2,4.2,0,0,0,4.87,6.832,4.167,4.167,0,0,0-.063.622,4.226,4.226,0,0,0,8.452,0,4.167,4.167,0,0,0-.063-.622,4.183,4.183,0,0,0,2.176.622,4.207,4.207,0,0,0,2.694-7.454,4.191,4.191,0,0,0,2.113-7.4,4.2,4.2,0,0,0,1.422-7.864A4.213,4.213,0,0,0,301.581,30.637Zm-2.113-7.4a2.113,2.113,0,1,1-2.113-2.113A2.115,2.115,0,0,1,299.468,23.242Zm-2.113-7.4a2.113,2.113,0,1,1-2.113-2.113A2.115,2.115,0,0,1,297.355,15.847Zm-4.226-9.508a2.113,2.113,0,1,1-2.113,2.113A2.115,2.115,0,0,1,293.129,6.339ZM286.79,2.113a2.113,2.113,0,1,1-2.113,2.113A2.115,2.115,0,0,1,286.79,2.113Zm-6.339,4.226a2.113,2.113,0,1,1-2.113,2.113A2.115,2.115,0,0,1,280.452,6.339Zm-2.113,7.4a2.113,2.113,0,1,1-2.113,2.113A2.115,2.115,0,0,1,278.339,13.734Zm-4.226,9.508a2.113,2.113,0,1,1,2.113,2.113A2.115,2.115,0,0,1,274.113,23.242Zm0,7.4a2.113,2.113,0,1,1,2.113,2.113A2.115,2.115,0,0,1,274.113,30.637Zm0,7.4a2.113,2.113,0,1,1,2.113,2.113A2.115,2.115,0,0,1,274.113,38.032Zm2.113,7.4a2.113,2.113,0,1,1,2.113,2.113A2.115,2.115,0,0,1,276.226,45.427Zm4.226,9.508a2.113,2.113,0,1,1,2.113-2.113A2.115,2.115,0,0,1,280.452,54.935Zm6.339,4.226a2.113,2.113,0,1,1,2.113-2.113A2.115,2.115,0,0,1,286.79,59.161Zm2.113-6.339a4.167,4.167,0,0,0,.063.622,4.117,4.117,0,0,0-4.353,0,4.167,4.167,0,0,0,.063-.622,4.218,4.218,0,0,0-3.645-4.167,4.191,4.191,0,0,0-2.113-7.4,4.179,4.179,0,0,0-.691-6.926,4.187,4.187,0,0,0,0-7.4,4.179,4.179,0,0,0,.691-6.926,4.191,4.191,0,0,0,2.113-7.4,4.218,4.218,0,0,0,3.645-4.167,4.167,4.167,0,0,0-.063-.622,4.117,4.117,0,0,0,4.353,0,4.167,4.167,0,0,0-.063.622,4.218,4.218,0,0,0,3.645,4.167,4.191,4.191,0,0,0,2.113,7.4,4.179,4.179,0,0,0,.691,6.926,4.187,4.187,0,0,0,0,7.4,4.179,4.179,0,0,0-.691,6.926,4.191,4.191,0,0,0-2.113,7.4A4.218,4.218,0,0,0,288.9,52.823Zm4.226,2.113a2.113,2.113,0,1,1,2.113-2.113A2.115,2.115,0,0,1,293.129,54.935Zm2.113-7.4a2.113,2.113,0,1,1,2.113-2.113A2.115,2.115,0,0,1,295.242,47.54Zm4.226-9.508a2.113,2.113,0,1,1-2.113-2.113A2.115,2.115,0,0,1,299.468,38.032Zm-2.113-5.282a2.113,2.113,0,1,1,2.113-2.113A2.115,2.115,0,0,1,297.355,32.75Z" transform="translate(-236.081)"/></svg>