<svg xmlns="http://www.w3.org/2000/svg" width="36.457" height="72.917" viewBox="0 0 36.457 72.917"><defs><style>.a{fill:#160f38;}</style></defs><g transform="translate(-136 -16)"><path class="a" d="M150.8,20.442a1.215,1.215,0,1,0-.43-2.392,19.162,19.162,0,0,0-10.2,5.183A13.8,13.8,0,0,0,136,32.926c0,3.255,1.192,10.47,2.9,17.547,1.19,4.932,3.632,13.9,6.972,20.307a3.644,3.644,0,1,0,4.878,5.4,3.641,3.641,0,0,0,.45,3.118,6.076,6.076,0,1,0,6.057,0,3.641,3.641,0,0,0,.45-3.118,3.644,3.644,0,1,0,4.878-5.4c3.34-6.408,5.782-15.376,6.972-20.307,1.706-7.077,2.9-14.293,2.9-17.548a13.8,13.8,0,0,0-4.169-9.694,19.163,19.163,0,0,0-10.2-5.183,1.215,1.215,0,1,0-.43,2.392,16.718,16.718,0,0,1,8.9,4.5,11.241,11.241,0,0,1,3.466,7.984c0,5.757-4.1,26.453-9.764,37.051a3.646,3.646,0,0,0-3.437,4.735,3.638,3.638,0,0,0-5.2,0,3.646,3.646,0,0,0-3.437-4.735c-5.662-10.6-9.763-31.293-9.763-37.051a11.241,11.241,0,0,1,3.466-7.984,16.719,16.719,0,0,1,8.9-4.5ZM160.3,72.407a1.215,1.215,0,1,1-1.215,1.215A1.215,1.215,0,0,1,160.3,72.407Zm-6.076,15.8a3.646,3.646,0,1,1,3.646-3.646A3.646,3.646,0,0,1,154.228,88.2Zm0-12.152a1.215,1.215,0,1,1-1.215,1.215A1.215,1.215,0,0,1,154.228,76.053Zm-4.861-2.43a1.215,1.215,0,1,1-1.215-1.215,1.215,1.215,0,0,1,1.215,1.215Z" transform="translate(0 -1.722)"/><circle class="a" cx="1.215" cy="1.215" r="1.215" transform="translate(151.798 16)"/><circle class="a" cx="1.215" cy="1.215" r="1.215" transform="translate(154.228 16)"/></g></svg>