<svg xmlns="http://www.w3.org/2000/svg" width="44.813" height="58.5" viewBox="0 0 44.813 58.5"><defs><style>.a{fill:#160f38;}</style></defs><g transform="translate(-72.234 -15.909)"><path class="a" d="M224,91.9a3.9,3.9,0,1,0,3.9-3.9A3.9,3.9,0,0,0,224,91.9Zm3.9-1.95a1.95,1.95,0,1,1-1.95,1.95A1.95,1.95,0,0,1,227.9,89.95Z" transform="translate(-133.273 -63.307)"/><path class="a" d="M123.875,155.716a13.97,13.97,0,0,1,3.593-1.292,4.843,4.843,0,0,0,2.569-1.528l-1.462-1.29a2.9,2.9,0,0,1-1.54.917A15.87,15.87,0,0,0,122.946,154a19.505,19.505,0,0,0-7.89,7.912l1.716.925A17.56,17.56,0,0,1,123.875,155.716Z" transform="translate(-37.603 -119.163)"/><path class="a" d="M268.085,23.932a8.978,8.978,0,0,1,.857-2.3,2.931,2.931,0,1,0-1.569-1.185,10.912,10.912,0,0,0-1.191,3.055Zm1.731-6.062a.975.975,0,1,1-.975.975A.975.975,0,0,1,269.816,17.869Z" transform="translate(-170.315 0)"/><path class="a" d="M275.464,151.606,274,152.9a4.843,4.843,0,0,0,2.569,1.528,13.971,13.971,0,0,1,3.593,1.292,17.56,17.56,0,0,1,7.1,7.123l1.716-.925a19.505,19.505,0,0,0-7.89-7.912A15.873,15.873,0,0,0,277,152.523,2.9,2.9,0,0,1,275.464,151.606Z" transform="translate(-177.182 -119.163)"/><path class="a" d="M194.922,21.865a2.914,2.914,0,0,0,.874-.133,8.977,8.977,0,0,1,.857,2.3l1.9-.427a10.912,10.912,0,0,0-1.191-3.055,2.923,2.923,0,1,0-2.443,1.319Zm0-3.9a.975.975,0,1,1-.975.975A.975.975,0,0,1,194.922,17.965Z" transform="translate(-105.17 -0.096)"/><path class="a" d="M115.928,257.423a3.893,3.893,0,0,0-.84-6.111,2.924,2.924,0,1,0-5.225,1.284,3.9,3.9,0,0,0,.106,4.353A3.9,3.9,0,0,0,109.08,261a3.9,3.9,0,0,0-1.942,3.667,3.9,3.9,0,0,0-2.853,3.015,3.9,3.9,0,0,0-3.555,2.144,3.9,3.9,0,0,0-4.012,1.122,3.886,3.886,0,0,0-4.165-.012,3.9,3.9,0,0,0-4-1.11A3.9,3.9,0,0,0,85,267.686a3.9,3.9,0,0,0-2.853-3.013A3.9,3.9,0,0,0,80.2,261a3.9,3.9,0,0,0-.888-4.055,3.9,3.9,0,0,0,.1-4.351,2.926,2.926,0,1,0-5.225-1.285,3.894,3.894,0,0,0-.839,6.113,3.894,3.894,0,0,0,1.232,5.632q-.031.087-.059.175a3.9,3.9,0,0,0,2.757,4.923,3.9,3.9,0,0,0,3.887,4.192l.074,0c.012.06.025.119.04.179a3.893,3.893,0,0,0,4.9,2.8,3.9,3.9,0,0,0,5.557,1.545,3.893,3.893,0,0,0,5.774-.012,3.9,3.9,0,0,0,5.575-1.533,3.9,3.9,0,0,0,4.9-2.8c.015-.059.028-.119.04-.179l.074,0A3.9,3.9,0,0,0,112,268.155a3.895,3.895,0,0,0,2.7-5.1,3.9,3.9,0,0,0,1.338-5.481Q115.981,257.5,115.928,257.423ZM112.2,249.87a.975.975,0,0,1,.972.923c-.08,0-.161,0-.242,0a3.875,3.875,0,0,0-1.616.452.973.973,0,0,1,.886-1.38Zm-1,4.929a1.95,1.95,0,1,1,3.227,1.361,3.928,3.928,0,0,0-.846-.29,3.875,3.875,0,0,0-1.93.068,1.94,1.94,0,0,1-.451-1.14ZM77.08,249.87a.973.973,0,0,1,.886,1.38,3.875,3.875,0,0,0-1.616-.453c-.081,0-.162-.006-.242-.005A.975.975,0,0,1,77.08,249.87Zm-2.893,4.712a1.95,1.95,0,1,1,3.444,1.354,3.9,3.9,0,0,0-2.776.224A1.949,1.949,0,0,1,74.187,254.583Zm1.93,3.193a1.947,1.947,0,0,1,2.193,2.7,3.877,3.877,0,0,0-1.878.453,3.93,3.93,0,0,0-.738.506,1.949,1.949,0,0,1,.423-3.663Zm.415,7.516a1.95,1.95,0,1,1,3.648-.614,3.884,3.884,0,0,0-2.262,1.622,1.949,1.949,0,0,1-1.387-1.008Zm5.2,4.282a3.929,3.929,0,0,0-.371.814,1.951,1.951,0,1,1,1.746-2.171,3.878,3.878,0,0,0-1.375,1.357Zm2.334,3.682a1.95,1.95,0,1,1,2.809-2.409,3.885,3.885,0,0,0-1.1,2.557,1.949,1.949,0,0,1-1.708-.148Zm5.081,2.188a1.95,1.95,0,1,1,2.061-3.073,3.885,3.885,0,0,0-.376,2.758,1.949,1.949,0,0,1-1.685.315Zm5.481.747a1.95,1.95,0,1,1,1.95-1.95A1.95,1.95,0,0,1,94.627,276.19Zm5.51-.747a1.95,1.95,0,0,1-1.709-.332,3.886,3.886,0,0,0-.369-2.72,1.949,1.949,0,1,1,2.078,3.052Zm5.081-2.188a1.949,1.949,0,0,1-1.708.148,3.885,3.885,0,0,0-1.1-2.557,1.949,1.949,0,1,1,2.809,2.409Zm4.31-3.468a1.949,1.949,0,0,1-1.6.6,3.929,3.929,0,0,0-.371-.814,3.878,3.878,0,0,0-1.375-1.357,1.949,1.949,0,1,1,3.35,1.571Zm3.223-4.5a1.949,1.949,0,0,1-1.386,1.008,3.894,3.894,0,0,0-2.262-1.624,1.949,1.949,0,1,1,3.648.616Zm1.9-5.195a1.949,1.949,0,0,1-1.066,1.342,3.885,3.885,0,0,0-2.614-.958,1.949,1.949,0,1,1,3.68-.385Z" transform="translate(0 -203.732)"/></g></svg>