<svg xmlns="http://www.w3.org/2000/svg" width="60" height="60" viewBox="0 0 60 60"><defs><style>.a{fill:#160f38;}</style></defs><path class="a" d="M49,7H43.994C41.847,2.545,38.777,0,35.5,0c-3.294,0-6.379,2.572-8.527,7.071C21.388,7.78,17,14.2,17,22a18.01,18.01,0,0,0,3.043,10.336,15.373,15.373,0,0,0-2.471,5.152c-.231.887-.4,1.793-.571,2.67a30.981,30.981,0,0,1-.689,3.048C8.083,43.94,0,46.742,0,51.5,0,56.346,9.028,60,21,60s21-3.654,21-8.5c0-4.171-6.821-7.532-16.7-8.32.093-.678.218-1.362.344-2.037l.087-.464a25.049,25.049,0,0,1,.987-3.79A8.232,8.232,0,0,0,28,37H49c6.065,0,11-6.729,11-15S55.065,7,49,7ZM35.5,2c2.28,0,4.51,1.8,6.251,5h-12.5C30.99,3.8,33.22,2,35.5,2ZM28,9c4.963,0,9,5.832,9,13s-4.037,13-9,13c-.16,0-.32-.006-.479-.019.021-.042.042-.084.064-.126a6.168,6.168,0,0,1,2.63-2.461,6.967,6.967,0,0,0,1.9-1.6,1.049,1.049,0,0,0,.092-.1q.266-.32.509-.671A13.293,13.293,0,0,0,34.871,24v-.016A15.009,15.009,0,0,0,35,22c0-6.58-3.619-11-7-11s-7,4.42-7,11a14.555,14.555,0,0,0,1.807,7.269q-.169.153-.334.307c-.092.086-.18.172-.27.259-.243.236-.477.474-.7.717-.05.053-.106.1-.155.158A16.546,16.546,0,0,1,19,22C19,14.832,23.037,9,28,9ZM24.394,28A12.718,12.718,0,0,1,23,22c0-5.576,2.912-9,5-9s5,3.424,5,9a13.136,13.136,0,0,1-.113,1.756c-.024.209-.075.4-.108.609-.315.106-.622.21-.961.32A27.254,27.254,0,0,0,24.394,28ZM40,51.5c0,3.074-7.8,6.5-19,6.5S2,54.574,2,51.5c0-2.413,5.007-5.28,13.481-6.208-.062.115-.116.238-.182.349a4.355,4.355,0,0,1-4.193,2.365.988.988,0,0,0-1.1.888,1,1,0,0,0,.888,1.1,6.054,6.054,0,0,0,.669.036,6.3,6.3,0,0,0,5.458-3.37,11.419,11.419,0,0,0,1-2.194v-.007a28.514,28.514,0,0,0,.947-3.922c.168-.884.327-1.718.542-2.541a13.517,13.517,0,0,1,2.546-5.032,18.389,18.389,0,0,1,2.691-2.727A22.593,22.593,0,0,1,32.2,26.664c-.022.059-.035.126-.058.184s-.056.114-.081.175a10.235,10.235,0,0,1-.544,1.161c-.094.167-.21.307-.313.464-.152.234-.3.479-.464.689l-.012.012-.011.012a.835.835,0,0,0-.058.061,5.077,5.077,0,0,1-1.415,1.223,8.073,8.073,0,0,0-3.433,3.288c-.231.442-.451.923-.657,1.43a25.333,25.333,0,0,0-1.386,4.951l-.086.46a14.867,14.867,0,0,0-.219,6.63,5.081,5.081,0,0,0,3.222,3.544,1,1,0,0,0,.632-1.9,3.127,3.127,0,0,1-1.925-2.175,6.9,6.9,0,0,1-.222-1.7C34.351,45.918,40,48.974,40,51.5ZM49,35H33.464C36.767,32.409,39,27.558,39,22S36.767,11.591,33.464,9h9.229A32.015,32.015,0,0,1,44.91,19.212a3.011,3.011,0,1,0,2-.056A34.786,34.786,0,0,0,44.853,9H49c4.963,0,9,5.832,9,13S53.963,35,49,35ZM46,21a1,1,0,1,1-1,1A1,1,0,0,1,46,21Z"/><path class="a" d="M21.89,54.006c-8.506.945-13.33-1.837-13.378-1.865a1,1,0,0,0-1.027,1.716c.185.111,4,2.348,10.888,2.348a33.763,33.763,0,0,0,3.737-.211,1,1,0,0,0-.22-1.988Z"/></svg>