<svg xmlns="http://www.w3.org/2000/svg" width="63.587" height="79.213" viewBox="0 0 63.587 79.213"><defs><style>.a{fill:#160f38;}</style></defs><g transform="translate(-50.501)"><g transform="translate(50.501 0)"><path class="a" d="M113.569,18.173a2.343,2.343,0,0,0-1.6-.871c-1.789-.183-5.811-.659-12.649-1.784a8.856,8.856,0,0,1-4.972-2.612,23.744,23.744,0,0,0,.261-2.534,1.16,1.16,0,0,0-2.3-.264A23.13,23.13,0,0,1,89.92,2.09,2.357,2.357,0,0,0,87.577,0H77.011a2.357,2.357,0,0,0-2.342,2.089,23.135,23.135,0,0,1-2.395,8.018,1.16,1.16,0,0,0-2.3.264,23.689,23.689,0,0,0,.261,2.534,8.855,8.855,0,0,1-4.972,2.612c-6.838,1.125-10.86,1.6-12.651,1.784a2.359,2.359,0,0,0-2.1,2.623c.113.958.252,1.98.416,3.037a1.16,1.16,0,1,0,2.293-.354c-.159-1.029-.295-2.023-.4-2.952a.039.039,0,0,1,.008-.032.033.033,0,0,1,.023-.013c1.815-.186,5.89-.668,12.788-1.8a11,11,0,0,0,5.126-2.251c1.329,5.755,5.006,10.65,10.365,11.037v1.778c-5.781,1.571-6.816,10.521-3.619,14.895a5.531,5.531,0,0,0,9.559,0c3.2-4.373,2.163-13.325-3.619-14.894V26.594c5.361-.388,9.036-5.283,10.365-11.037a11,11,0,0,0,5.126,2.251c6.9,1.135,10.973,1.616,12.786,1.8a.034.034,0,0,1,.026.014.039.039,0,0,1,.009.031c-.568,4.837-3.05,21.486-11.147,32.62a1.16,1.16,0,1,0,1.877,1.365c8.428-11.59,10.991-28.736,11.576-33.716a2.348,2.348,0,0,0-.5-1.751ZM86.548,37.131c0,3.564-1.948,6.575-4.254,6.575s-4.254-3.011-4.254-6.575,1.948-6.575,4.254-6.575S86.548,33.567,86.548,37.131Zm-4.254-12.8c-5.559.151-8.607-5.255-9.576-10.716,3.11-3.84,4.012-9.141,4.256-11.262a.035.035,0,0,1,.037-.033H87.577a.035.035,0,0,1,.037.033c.244,2.12,1.146,7.419,4.254,11.259C91.064,17.764,88.77,24.331,82.294,24.331Z" transform="translate(-50.501 0)"/><path class="a" d="M107.46,218.891H95.613v-1.679c0-3.536,5.041-7.893,6.994-9.281a26.624,26.624,0,0,0,3.627-2.948,1.16,1.16,0,1,0-1.612-1.669,24.5,24.5,0,0,1-3.039,2.5H78.065c-10.013-6.949-14.545-22.4-16.361-31.051a1.16,1.16,0,0,0-2.271.477,80.808,80.808,0,0,0,5.575,17.38c3.24,6.969,7.287,12.119,12.031,15.307,1.953,1.388,6.994,5.745,6.994,9.281v1.679H72.187a4.259,4.259,0,0,0-4.255,4.255v1.238a1.781,1.781,0,0,0,1.779,1.779h8.223a1.16,1.16,0,0,0,0-2.321H70.253v-.7a1.936,1.936,0,0,1,1.934-1.934H107.46a1.936,1.936,0,0,1,1.934,1.934v.7H83.385a1.16,1.16,0,0,0,0,2.321h26.55a1.781,1.781,0,0,0,1.779-1.779v-1.238A4.26,4.26,0,0,0,107.46,218.891Zm-21.105,0v-1.679c0-3.463-3.076-6.935-5.411-9.072H98.7c-2.335,2.137-5.411,5.609-5.411,9.072v1.679Z" transform="translate(-58.03 -146.949)"/></g></g></svg>