<svg xmlns="http://www.w3.org/2000/svg" width="58.525" height="42.918" viewBox="0 0 58.525 42.918"><defs><style>.a{fill:#160f38;}</style></defs><g transform="translate(0 -68.267)"><g transform="translate(0 68.267)"><path class="a" d="M29.263,68.267C13.127,68.267,0,77.893,0,89.726s13.127,21.459,29.263,21.459,29.263-9.626,29.263-21.459S45.4,68.267,29.263,68.267Zm0,40.968c-15.059,0-27.312-8.751-27.312-19.508S14.2,70.218,29.263,70.218s27.312,8.751,27.312,19.508S44.322,109.235,29.263,109.235Z" transform="translate(0 -68.267)"/><path class="a" d="M82.168,128.736c12.583,0,22.435-5.784,22.435-13.168S94.751,102.4,82.168,102.4s-22.435,5.784-22.435,13.168S69.585,128.736,82.168,128.736ZM61.684,115.568c0-6.185,9.189-11.217,20.484-11.217s20.484,5.032,20.484,11.217c0,.067-.017.132-.019.2-3.552-5.1-11.491-8.486-20.465-8.486s-16.914,3.391-20.465,8.486C61.7,115.7,61.684,115.632,61.684,115.568Zm20.484-6.34c9.157,0,17.362,3.871,19.759,9.253-2.352,4.776-10.306,8.3-19.759,8.3s-17.407-3.529-19.759-8.3C64.805,113.1,73.01,109.228,82.168,109.228Z" transform="translate(-52.905 -98.498)"/><path class="a" d="M238.569,359.863h-.488v-.488a.975.975,0,1,0-1.951,0v.488h-.488a.975.975,0,0,0,0,1.951h.488v.488a.975.975,0,1,0,1.951,0v-.488h.488a.975.975,0,0,0,0-1.951Z" transform="translate(-207.843 -325.236)"/><path class="a" d="M336.7,342.8h-.488v-.488a.975.975,0,1,0-1.951,0v.488h-.488a.975.975,0,1,0,0,1.951h.488v.488a.975.975,0,1,0,1.951,0v-.488h.488a.975.975,0,0,0,0-1.951Z" transform="translate(-294.759 -310.12)"/><path class="a" d="M140.436,342.8h-.488v-.488a.975.975,0,0,0-1.951,0v.488h-.488a.975.975,0,1,0,0,1.951H138v.488a.975.975,0,0,0,1.951,0v-.488h.488a.975.975,0,0,0,0-1.951Z" transform="translate(-120.927 -310.12)"/><path class="a" d="M422.036,291.6h-.488v-.488a.975.975,0,1,0-1.951,0v.488h-.488a.975.975,0,1,0,0,1.951h.488v.488a.975.975,0,0,0,1.951,0v-.488h.488a.975.975,0,0,0,0-1.951Z" transform="translate(-370.339 -264.772)"/><path class="a" d="M55.1,291.6h-.488v-.488a.975.975,0,1,0-1.951,0v.488h-.488a.975.975,0,0,0,0,1.951h.488v.488a.975.975,0,0,0,1.951,0v-.488H55.1a.975.975,0,0,0,0-1.951Z" transform="translate(-45.347 -264.772)"/></g></g></svg>