<svg xmlns="http://www.w3.org/2000/svg" width="19.333" height="19.398" viewBox="0 0 19.333 19.398"><defs><style>.a{fill:#736c94;stroke:#736c94;}</style></defs><g transform="translate(0.494 0.5)"><g transform="translate(0.006)"><g transform="translate(0)"><path class="a" d="M18.166,17.336l-4.733-4.658a7.487,7.487,0,0,0,2-5.088A7.653,7.653,0,0,0,7.719,0,7.653,7.653,0,0,0,.006,7.591a7.653,7.653,0,0,0,7.713,7.591,7.757,7.757,0,0,0,4.855-1.7l4.752,4.676a.6.6,0,0,0,.839,0A.578.578,0,0,0,18.166,17.336ZM7.719,14.014A6.475,6.475,0,0,1,1.193,7.591,6.475,6.475,0,0,1,7.719,1.168a6.475,6.475,0,0,1,6.527,6.423A6.475,6.475,0,0,1,7.719,14.014Z" transform="translate(-0.006)"/></g></g></g></svg>