<svg xmlns="http://www.w3.org/2000/svg" width="29.881" height="29.312" viewBox="0 0 29.881 29.312"><defs><style>.a{fill:#160f38;}</style></defs><g transform="translate(0 0)"><g transform="translate(0 0)"><path class="a" d="M29.689,13.99a.663.663,0,0,0-.553-.184H21.208V10.3a6.268,6.268,0,0,0-12.536,0v3.5H.745c-.221,0-.442,0-.553.184a.627.627,0,0,0-.184.553L2.773,29.66a4.5,4.5,0,0,0,4.351,3.687H22.757a4.535,4.535,0,0,0,4.351-3.724l2.765-15.08A.627.627,0,0,0,29.689,13.99ZM10.147,10.3a4.793,4.793,0,0,1,9.586,0v3.5H10.147ZM25.633,29.439a2.95,2.95,0,0,1-2.876,2.433H7.124a2.95,2.95,0,0,1-2.876-2.433L1.63,15.28h26.62Z" transform="translate(0 -4.035)"/><path class="a" d="M280.364,216.7a.737.737,0,0,0,.737-.737v-2.212a.737.737,0,0,0-1.475,0v2.212A.737.737,0,0,0,280.364,216.7Z" transform="translate(-259.893 -198.266)"/><path class="a" d="M123.629,216.7a.737.737,0,0,0,.737-.737v-2.212a.737.737,0,0,0-1.475,0v2.212A.737.737,0,0,0,123.629,216.7Z" transform="translate(-114.219 -198.266)"/></g></g></svg>