<svg xmlns="http://www.w3.org/2000/svg" width="56.715" height="37.892" viewBox="0 0 56.715 37.892"><defs><style>.a{fill:#160f38;}</style></defs><g transform="translate(0 -0.02)"><path class="a" d="M53.647,85.137c-1.844-1.233-4.324-1.5-7.375-.824a11.341,11.341,0,0,0-.038-5.207c-.381-1.346-2.136-5.685-8.679-5.089a12.815,12.815,0,0,0-3.034.649L29.06,68.6c-.005-.006-.013-.008-.019-.013a.929.929,0,0,0-1.368,0c-.006.005-.013.007-.019.013l-5.459,6.067a12.8,12.8,0,0,0-3.033-.648c-6.545-.6-8.3,3.742-8.681,5.089a11.337,11.337,0,0,0-.038,5.206c-3.052-.679-5.532-.408-7.377.826C1.033,86.5,0,88.785,0,91.915A6.188,6.188,0,0,0,2.1,96.723,8.057,8.057,0,0,0,6.424,98.5c.034.009.059.01.089.015a.8.8,0,0,0,.106.021H6.7a11.881,11.881,0,0,0,1.446.085,13.243,13.243,0,0,0,1.488-.085h37.45a13.283,13.283,0,0,0,1.478.085A11.621,11.621,0,0,0,50,98.531h.1a.8.8,0,0,0,.106-.021.855.855,0,0,0,.09-.015,8.06,8.06,0,0,0,4.331-1.777,6.184,6.184,0,0,0,2.09-4.8c0-3.13-1.031-5.411-3.066-6.778ZM49.575,92.86H42.1a13.47,13.47,0,0,0,1.4-1.806,2.894,2.894,0,0,0,.932-.2c3.213-1.332,5.353-1.459,6.046-1,.355.24.558.991.558,2.062,0,.4-.089.472-.139.515a2.549,2.549,0,0,1-1.328.43Zm-40.121,0H7.134a2.519,2.519,0,0,1-1.324-.431c-.048-.042-.137-.119-.137-.514,0-1.07.2-1.822.553-2.059.7-.466,2.839-.338,6.058,1a2.854,2.854,0,0,0,.925.2,13.467,13.467,0,0,0,1.4,1.806Zm11.194-1.8a2.807,2.807,0,0,0-1.421-1.633c-1.2-.6-4.1-5.928-3.288-8.77.123-.422.35-1.206,2.705-1a7.107,7.107,0,0,1,.958.158l5.274,5.859a18.605,18.605,0,0,1,.637,3.875v.006a22.55,22.55,0,0,0,.009,2.525,1.4,1.4,0,0,0,.027.159c.005.04,0,.082.006.122a1.2,1.2,0,0,0,.04.215,1.151,1.151,0,0,0,.062.225c0,.018.015.037.02.055h-5.04a2.813,2.813,0,0,0,.01-1.8Zm6.765-19.366V74.52l-2.9,3.218H21.973Zm7.329,6.044H32.2L29.3,74.52V71.694Zm-10.225,1.89,2.9,3.217v2.826l-.953-1.059,0,0-4.484-4.982ZM28.357,76.3l2.149,2.387L28.357,81.07l-2.149-2.387Zm.956,13.218A22.1,22.1,0,0,0,29.3,91.9a.5.5,0,0,1-.01.146v0c0,.021-.008.042-.011.063l0,.016a.629.629,0,0,0-.047.186c-.008.017-.016.034-.024.051l0,.007c-.017.03-.032.062-.047.083s-.076.093-.1.126l-.06.057a.693.693,0,0,0-.073.065l-.093.059a.813.813,0,0,1-.106.058,1.082,1.082,0,0,0-.1.038h-.541a.892.892,0,0,0-.107-.041q-.088-.044-.17-.1a1.01,1.01,0,0,0-.078-.071,1.092,1.092,0,0,0-.1-.1c-.007-.011-.06-.079-.067-.089s-.031-.05-.068-.115c.009.019.013.037,0,.048,0-.018,0-.035-.008-.053l-.019-.033a.339.339,0,0,1,.019.032.942.942,0,0,0-.043-.158c0-.024-.011-.048-.018-.071s-.007-.042-.011-.064v0a.5.5,0,0,1-.01-.146c0-.024.01-.154.016-.359v-.026c0-.062,0-.133.005-.208V91.23c0-.069,0-.146,0-.224,0-.042,0-.08,0-.125,0-.071,0-.148,0-.225,0-.061,0-.118,0-.182s0-.139,0-.209,0-.161-.006-.248c0-.058,0-.12-.007-.18,0-.1-.007-.2-.013-.3,0-.023,0-.047,0-.071-.023-.369-.057-.73-.1-1.086l.349.387c.006.006.014.008.019.014a.98.98,0,0,0,1.366,0c.006-.006.014-.008.019-.014l.351-.39c-.04.371-.074.748-.1,1.137Zm.945-4.9,0,0L29.3,85.671V82.845l2.9-3.217h2.543Zm.8,8.209a1.127,1.127,0,0,0,.066-.243,1.241,1.241,0,0,0,.039-.21c.005-.029,0-.06,0-.089a1.456,1.456,0,0,0,.029-.155,23.052,23.052,0,0,0,.009-2.559,18.605,18.605,0,0,1,.637-3.885l5.274-5.86a7.073,7.073,0,0,1,.951-.157c2.36-.215,2.59.572,2.711.99.809,2.846-2.089,8.172-3.281,8.772a2.807,2.807,0,0,0-1.416,3.437H31.039C31.043,92.847,31.05,92.833,31.054,92.819ZM37.726,75.9c4.777-.443,6.242,2.143,6.688,3.721a10.782,10.782,0,0,1-.348,5.748A16.981,16.981,0,0,1,42.2,89.591a8.631,8.631,0,0,1-3.028,3.219.928.928,0,0,1-.128.051h-.58a.943.943,0,0,1-.6-1.2.934.934,0,0,1,.478-.545c2.188-1.1,5.267-7.42,4.254-10.986-.194-.668-.778-2.709-4.7-2.349-.18.018-.338.045-.5.068l-1.469-1.632a11.253,11.253,0,0,1,1.81-.316ZM12.3,79.621c.446-1.578,1.9-4.162,6.69-3.721a11.241,11.241,0,0,1,1.808.316l-1.469,1.632c-.167-.024-.327-.051-.511-.069-3.913-.349-4.5,1.682-4.7,2.356-1.011,3.56,2.068,9.88,4.262,10.983a.931.931,0,0,1,.472.543.943.943,0,0,1-.6,1.2h-.579a.9.9,0,0,1-.129-.051,8.645,8.645,0,0,1-3.032-3.226,17,17,0,0,1-1.862-4.221,10.769,10.769,0,0,1-.347-5.741ZM53.382,95.293a6.487,6.487,0,0,1-3.4,1.336l-.073.012H6.806l-.073-.012a6.486,6.486,0,0,1-3.4-1.332,4.292,4.292,0,0,1-1.446-3.382c0-2.462.75-4.214,2.227-5.206,1.574-1.051,3.881-1.158,6.865-.317.043.133.095.263.141.4.061.179.123.357.189.534.081.215.168.427.257.64.074.177.146.352.225.526.027.059.049.121.077.18-2.133-.768-5.063-1.475-6.7-.38-.922.623-1.39,1.844-1.39,3.628a2.412,2.412,0,0,0,.788,1.941,4.325,4.325,0,0,0,2.363.885c.233.032.464.053.688.067.071,0,.134,0,.2.006.139.006.281.013.411.013h.027c.143,0,.268-.006.4-.013.06,0,.129,0,.185-.006.174-.012.327-.027.449-.045.054-.007.108-.012.163-.013h7.994a2.968,2.968,0,0,0,.5.046l.013,0c.037,0,.078-.012.115-.013a2.785,2.785,0,0,0,.384-.035H27.9c.054.009.1.014.146.019a1.1,1.1,0,0,0,.192.019h.246a1.055,1.055,0,0,0,.236-.024c.029,0,.064-.007.1-.014h9.436a2.744,2.744,0,0,0,.386.035c.036,0,.076.013.112.013h.013a3,3,0,0,0,.5-.046h7.994c.052,0,.111.008.132.01.13.019.289.034.468.046.055,0,.121,0,.18.006.135.006.27.013.421.013h.027c.084,0,.177-.006.264-.008.117,0,.229,0,.35-.011.16-.01.325-.029.489-.048.057-.006.113-.008.171-.016h.02l.006,0a4.335,4.335,0,0,0,2.355-.882,2.413,2.413,0,0,0,.79-1.943c0-1.784-.468-3-1.394-3.631-1.636-1.089-4.567-.381-6.7.383.027-.058.049-.119.076-.177.08-.177.154-.357.229-.537.087-.207.172-.413.251-.623.069-.183.132-.366.2-.551.044-.129.1-.257.137-.387,2.982-.842,5.291-.736,6.864.315,1.478.993,2.228,2.746,2.228,5.208a4.29,4.29,0,0,1-1.441,3.378Zm0,0" transform="translate(0 -60.705)"/><path class="a" d="M171.633,34.152a.945.945,0,0,0-.945.945v.945a.945.945,0,1,0,1.89,0V35.1A.945.945,0,0,0,171.633,34.152Zm0,0" transform="translate(-151.782 -30.352)"/><path class="a" d="M188.7,61.644h.945a.945.945,0,0,0,0-1.89H188.7a.945.945,0,0,0,0,1.89Zm0,0" transform="translate(-166.958 -53.118)"/><path class="a" d="M170.688,78.711a.945.945,0,1,0,1.89,0v-.945a.945.945,0,0,0-1.89,0Zm0,0" transform="translate(-151.782 -68.294)"/><path class="a" d="M146.976,59.754h-.945a.945.945,0,1,0,0,1.89h.945a.945.945,0,1,0,0-1.89Zm0,0" transform="translate(-129.016 -53.118)"/><path class="a" d="M316.7.02a.945.945,0,0,0-.945.945V1.91a.945.945,0,1,0,1.89,0V.965A.945.945,0,0,0,316.7.02Zm0,0" transform="translate(-280.78)"/><path class="a" d="M292.043,25.621H291.1a.945.945,0,1,0,0,1.89h.945a.945.945,0,1,0,0-1.89Zm0,0" transform="translate(-258.015 -22.766)"/><path class="a" d="M333.766,27.511h.945a.945.945,0,0,0,0-1.89h-.945a.945.945,0,0,0,0,1.89Zm0,0" transform="translate(-295.957 -22.766)"/><path class="a" d="M315.754,44.578a.945.945,0,0,0,1.89,0v-.945a.945.945,0,0,0-1.89,0Zm0,0" transform="translate(-280.78 -37.942)"/></g></svg>